<?xml version="1.0" encoding="utf-8"?>
<!-- Generator: Adobe Illustrator 24.1.0, SVG Export Plug-In . SVG Version: 6.00 Build 0)  -->
<svg version="1.1" id="Layer_1" xmlns="http://www.w3.org/2000/svg" xmlns:xlink="http://www.w3.org/1999/xlink" x="0px" y="0px"
	 viewBox="0 0 1518.5 230" style="enable-background:new 0 0 1518.5 230;" xml:space="preserve">
<style type="text/css">
	.st0{fill:#3A3A3A;}
	.st1{fill:#5191BF;}
	.st2{font-family:'KohinoorDevanagari-Semibold';}
	.st3{font-size:243.3089px;}
	.st4{letter-spacing:3.5;}
</style>
<g>
	<g>
		<path class="st0" d="M106.2,191.4c-0.5,2.3-0.9,4.6-1.2,7c-0.1,1-0.2,2-0.3,3l-85.6,0c-1,0-1.8-0.8-1.7-1.9
			c0.2-2.8,0.3-5.6,0.7-8.4c2.5-18.2,10.3-33.8,23.5-46.7c5.8-5.7,12.3-10.3,19.5-14c1.1-0.6,1.7-0.4,2.5,0.3
			c1.7,1.5,3.5,2.8,5.3,4.3c0.6,0.5,0.6,1.4-0.1,1.9c-2.3,1.5-4.6,3.1-7,4.5c-15.9,9.4-26.3,23.1-31.7,40.7
			c-0.7,2.2-1.1,4.5-1.6,6.8c-0.2,0.8-0.3,1.6-0.4,2.5H106.2z"/>
		<path class="st0" d="M138.9,133.7c-0.9,0.8-1.7,1.6-2.6,2.5c-1.5,1.5-3,3.1-4.5,4.6c-2.1-1.3-4.2-2.6-6.4-3.8
			c-0.7-0.4-0.8-1.4-0.2-1.9c2-1.6,3.9-3.2,5.9-4.7c0.4-0.3,1.3-0.1,1.8,0.1C135.1,131.5,137,132.6,138.9,133.7z"/>
		<path class="st0" d="M135.9,98.5c-0.1,21.8-17.6,39.3-39.3,39.2c-21.6-0.1-39-17.8-38.9-39.6C57.7,76.7,75.4,59.3,97,59.3
			C118.4,59.4,136,77,135.9,98.5z M96.8,127.7c16.2,0,29.3-13.1,29.3-29.3c0-16-13.1-29.1-29.2-29.2c-16.2,0-29.4,13.1-29.4,29.2
			C67.5,114.7,80.6,127.7,96.8,127.7z"/>
	</g>
	<g>
		<path class="st0" d="M288.9,130.8c1.7,1.5,3.5,2.8,5.3,4.3c0.6,0.5,0.6,1.4-0.1,1.9c-1.8,1.2-3.7,2.5-5.5,3.6
			c-2.3-2.6-4.8-5-7.3-7.3c1.7-1,3.4-2,5.1-2.9C287.5,129.9,288.1,130.1,288.9,130.8z"/>
		<path class="st0" d="M400.5,201.4h-84.6c-0.3-3.4-0.8-6.7-1.5-10h77.2c-1.9-12.3-6.6-23.2-14.2-33c-7.2-9.2-16.5-15.8-26.5-21.5
			c-0.7-0.4-0.8-1.4-0.2-1.9c2-1.6,3.9-3.2,5.9-4.7c0.4-0.3,1.3-0.1,1.8,0.1c10.1,5.1,18.8,12.1,25.9,20.9
			c11.3,14,17.2,30.1,17.8,48l0,0.2C402.2,200.6,401.5,201.4,400.5,201.4z"/>
		<path class="st0" d="M361.3,98.5c-0.1,21.8-17.6,39.3-39.3,39.2c-21.6-0.1-39-17.8-38.9-39.6c0.1-21.4,17.8-38.8,39.3-38.7
			C343.9,59.4,361.4,77,361.3,98.5z M322.2,127.7c16.2,0,29.3-13.1,29.3-29.3c0-16-13.1-29.1-29.2-29.2c-16.2,0-29.4,13.1-29.4,29.2
			C292.9,114.7,306,127.7,322.2,127.7z"/>
	</g>
	<g>
		<path class="st1" d="M261.7,71.9c-0.1,29-23.4,52.3-52.4,52.2c-28.8-0.1-52-23.7-51.8-52.8c0.1-28.5,23.7-51.6,52.4-51.6
			C238.5,19.9,261.8,43.4,261.7,71.9z"/>
		<path class="st1" d="M314.8,212.1H105.8c-1,0-1.8-0.8-1.7-1.9c0.2-3,0.3-5.9,0.6-8.8c0.1-1,0.2-2,0.3-3c0.3-2.4,0.7-4.7,1.2-7
			c3.8-19.2,12.4-36.1,25.6-50.6c1.4-1.6,2.9-3.1,4.5-4.6c0.9-0.8,1.7-1.7,2.6-2.5c5.2-4.7,10.8-8.9,16.8-12.5l10.2-5.8
			c1-0.6,2.3-0.4,3.1,0.4c10.6,9.9,24.8,16,40.5,16c16.1,0,30.6-6.2,41.4-16.3c0.8-0.8,2.1-0.9,3.1-0.4l10.1,5.7l0.1,0
			c6.1,3.6,11.8,7.7,17,12.4c2.5,2.3,5,4.7,7.3,7.3c1.4,1.6,2.8,3.2,4.2,4.9c11.2,13.9,18.4,29.2,21.7,46c0.6,3.3,1.1,6.6,1.5,10
			c0.3,2.6,0.5,5.3,0.6,7.9l0,0.9C316.5,211.3,315.7,212.1,314.8,212.1z"/>
	</g>
</g>
<text transform="matrix(0.8589 0 0 1 499.1342 202.5993)"><tspan x="0" y="0" class="st1 st2 st3 st4">Wo</tspan><tspan x="379.3" y="0" class="st0 st2 st3 st4">rkZone</tspan></text>
</svg>
