<?xml version="1.0" encoding="utf-8"?>
<!-- Generator: Adobe Illustrator 24.1.0, SVG Export Plug-In . SVG Version: 6.00 Build 0)  -->
<svg version="1.1" id="Layer_1" xmlns="http://www.w3.org/2000/svg" xmlns:xlink="http://www.w3.org/1999/xlink" x="0px" y="0px"
	 viewBox="0 0 1518.5 230" style="enable-background:new 0 0 1518.5 230;" xml:space="preserve">
<style type="text/css">
	.st0{fill:#3B3A3A;}
	.st1{fill:#3E91C2;}
</style>
<g>
	<g>
		<path class="st0" d="M127.2,191.4c-0.5,2.3-0.9,4.6-1.2,7c-0.1,1-0.2,2-0.3,3H40.1c-1,0-1.8-0.8-1.7-1.9c0.2-2.8,0.3-5.6,0.7-8.4
			c2.5-18.2,10.3-33.8,23.5-46.7c5.8-5.7,12.3-10.3,19.5-14c1.1-0.6,1.7-0.4,2.5,0.3c1.7,1.5,3.5,2.8,5.3,4.3
			c0.6,0.5,0.6,1.4-0.1,1.9c-2.3,1.5-4.6,3.1-7,4.5c-15.9,9.4-26.3,23.1-31.7,40.7c-0.7,2.2-1.1,4.5-1.6,6.8
			c-0.2,0.8-0.3,1.6-0.4,2.5L127.2,191.4L127.2,191.4z"/>
		<path class="st0" d="M159.9,133.7c-0.9,0.8-1.7,1.6-2.6,2.5c-1.5,1.5-3,3.1-4.5,4.6c-2.1-1.3-4.2-2.6-6.4-3.8
			c-0.7-0.4-0.8-1.4-0.2-1.9c2-1.6,3.9-3.2,5.9-4.7c0.4-0.3,1.3-0.1,1.8,0.1C156.1,131.5,158,132.6,159.9,133.7z"/>
		<path class="st0" d="M156.9,98.5c-0.1,21.8-17.6,39.3-39.3,39.2c-21.6-0.1-39-17.8-38.9-39.6c0-21.4,17.7-38.8,39.3-38.8
			C139.4,59.4,157,77,156.9,98.5z M117.8,127.7c16.2,0,29.3-13.1,29.3-29.3c0-16-13.1-29.1-29.2-29.2c-16.2,0-29.4,13.1-29.4,29.2
			C88.5,114.7,101.6,127.7,117.8,127.7z"/>
	</g>
	<g>
		<path class="st0" d="M309.9,130.8c1.7,1.5,3.5,2.8,5.3,4.3c0.6,0.5,0.6,1.4-0.1,1.9c-1.8,1.2-3.7,2.5-5.5,3.6
			c-2.3-2.6-4.8-5-7.3-7.3c1.7-1,3.4-2,5.1-2.9C308.5,129.9,309.1,130.1,309.9,130.8z"/>
		<path class="st0" d="M421.5,201.4h-84.6c-0.3-3.4-0.8-6.7-1.5-10h77.2c-1.9-12.3-6.6-23.2-14.2-33c-7.2-9.2-16.5-15.8-26.5-21.5
			c-0.7-0.4-0.8-1.4-0.2-1.9c2-1.6,3.9-3.2,5.9-4.7c0.4-0.3,1.3-0.1,1.8,0.1c10.1,5.1,18.8,12.1,25.9,20.9
			c11.3,14,17.2,30.1,17.8,48v0.2C423.2,200.6,422.5,201.4,421.5,201.4z"/>
		<path class="st0" d="M382.3,98.5c-0.1,21.8-17.6,39.3-39.3,39.2c-21.6-0.1-39-17.8-38.9-39.6c0.1-21.4,17.8-38.8,39.3-38.7
			C364.9,59.4,382.4,77,382.3,98.5z M343.2,127.7c16.2,0,29.3-13.1,29.3-29.3c0-16-13.1-29.1-29.2-29.2c-16.2,0-29.4,13.1-29.4,29.2
			C313.9,114.7,327,127.7,343.2,127.7z"/>
	</g>
	<g>
		<path class="st1" d="M282.7,71.9c-0.1,29-23.4,52.3-52.4,52.2c-28.8-0.1-52-23.7-51.8-52.8c0.1-28.5,23.7-51.6,52.4-51.6
			C259.5,19.9,282.8,43.4,282.7,71.9z"/>
		<path class="st1" d="M335.8,212.1h-209c-1,0-1.8-0.8-1.7-1.9c0.2-3,0.3-5.9,0.6-8.8c0.1-1,0.2-2,0.3-3c0.3-2.4,0.7-4.7,1.2-7
			c3.8-19.2,12.4-36.1,25.6-50.6c1.4-1.6,2.9-3.1,4.5-4.6c0.9-0.8,1.7-1.7,2.6-2.5c5.2-4.7,10.8-8.9,16.8-12.5l10.2-5.8
			c1-0.6,2.3-0.4,3.1,0.4c10.6,9.9,24.8,16,40.5,16c16.1,0,30.6-6.2,41.4-16.3c0.8-0.8,2.1-0.9,3.1-0.4l10.1,5.7h0.1
			c6.1,3.6,11.8,7.7,17,12.4c2.5,2.3,5,4.7,7.3,7.3c1.4,1.6,2.8,3.2,4.2,4.9c11.2,13.9,18.4,29.2,21.7,46c0.6,3.3,1.1,6.6,1.5,10
			c0.3,2.6,0.5,5.3,0.6,7.9v0.9C337.5,211.3,336.7,212.1,335.8,212.1z"/>
	</g>
</g>
<g id="zc8fOL.tif">
	<g>
		<path class="st1" d="M486.9,30.8c0.9-0.1,1.5-0.1,2-0.1c8.1,0,16.2,0,24.3,0c1.3,0,1.8,0.3,2.1,1.7c6.2,29.1,12.6,58.2,18.6,87.4
			c2.8,13.8,4.7,27.7,7,41.6c0.3,2,0.4,4.1,0.5,6.2c0.2,0,0.4,0,0.6,0c0.3-1.9,0.5-3.8,0.9-5.7c2.1-11.7,4.1-23.4,6.4-35.1
			c4.4-22.6,8.9-45.2,13.4-67.7c1.8-9,3.6-17.9,5.3-26.9c0.2-1.1,0.7-1.5,1.8-1.5c9.9,0,19.8,0,29.7,0c1.2,0,1.6,0.4,1.8,1.6
			c3.8,18.3,7.7,36.5,11.4,54.8c3.6,17.3,7.2,34.5,10.6,51.9c1.7,9,3,18,4.5,27c0.1,0.5,0.2,1,0.5,1.4c6.4-46,18-91,26.6-136.6
			c8.8,0,17.3,0,26.2,0c-12.5,56.7-24.9,113.2-37.3,169.8c-10.9,0-21.6,0-32.6,0c-4.7-22.8-9.4-45.6-14.1-68.5
			c-4.7-22.8-9.4-45.6-12.8-68.7c-7,46.1-18.4,91.4-27.3,137.2c-11,0-21.7,0-32.8,0C511.8,144.1,499.4,87.6,486.9,30.8z"/>
		<path class="st0" d="M1073.8,56.9c-20.6,0-40.8,0-61.2,0c-0.1-0.6-0.1-1.1-0.1-1.5c0-7.6,0-15.1,0-22.7c0-1.3,0.3-1.9,1.8-1.9
			c28.8,0,57.5,0,86.3,0c0.2,0,0.4,0,0.8,0.1c0.5,3.1,1,6.3,1.5,9.5c0.7,4.7,1.4,9.5,2.1,14.2c0.1,0.6,0,1.4-0.3,1.9
			c-22,38.5-44,77.1-66,115.6c-0.4,0.7-0.7,1.4-1.1,2.4c22.9,0,45.5,0,68.2,0c0,8.7,0,17.3,0,26c-32,0-64.1,0-96.4,0
			c-0.5-3-1-6.1-1.5-9.3c-0.7-4.7-1.4-9.4-2-14c-0.1-0.9,0-1.9,0.5-2.7c9.9-17.2,19.8-34.4,29.7-51.5c12.4-21.4,24.7-42.9,37.1-64.3
			C1073.2,58.2,1073.4,57.7,1073.8,56.9z"/>
		<path class="st0" d="M1227,132.2c0.3,13.2-0.8,26.2-5.4,38.8c-2,5.6-4.7,10.9-8.5,15.6c-5.9,7.4-13.4,12.3-22.5,14.6
			c-10.5,2.7-21,2.6-31.4-0.2c-15-4.1-24-14.5-29-28.8c-2.9-8.3-4.3-17-4.9-25.8c-0.9-12.9-0.6-25.7,1.8-38.5
			c1.6-8.5,4.3-16.6,8.9-24c6.3-10.1,15.3-16.6,27-19.2c10.2-2.3,20.4-2.1,30.5,0.7c14.2,4,23,13.8,28.1,27.3
			c3.3,9,4.8,18.3,5.4,27.8C1227.2,124.3,1227,128.3,1227,132.2z M1151.9,132.3c0,3.6-0.2,7.2,0,10.8c0.5,7.2,1.4,14.4,4.1,21.2
			c4.4,10.9,12,15.6,23.6,14.5c6.8-0.6,12.2-3.8,15.3-9.9c1.7-3.3,3-6.9,3.8-10.6c2.5-11.5,2.4-23.2,1.8-34.8
			c-0.4-7.2-1.4-14.3-4-21c-3.5-8.8-9.5-14.5-19.4-15c-8.6-0.5-15.5,2.5-19.6,10.4c-1.2,2.2-2.2,4.7-2.9,7.1
			C1152,113.8,1151.7,123,1151.9,132.3z"/>
		<path class="st1" d="M688.8,133.9c0.1-13,1.3-25.9,5.6-38.2c3.9-10.9,10-20.1,20.1-26.1c6-3.5,12.5-5.4,19.3-6
			c9-0.8,18-0.4,26.6,2.8c12.1,4.4,19.9,13.2,24.6,25c3.6,8.9,5.2,18.2,5.7,27.7c0.4,7,0.6,14,0.3,20.9c-0.5,13.3-2.6,26.3-8.7,38.3
			c-7.6,14.8-19.7,22.8-36.2,24.5c-7.8,0.8-15.5,0.4-23.1-1.8c-13.4-3.8-22.3-12.7-27.5-25.4c-3.7-8.9-5.4-18.3-6.1-27.8
			C689.2,143.1,689,138.5,688.8,133.9z M715.5,131.7c0.2,4.7,0.3,9.5,0.7,14.2c0.5,6.2,1.6,12.3,3.8,18.2c4,10.3,11,15.1,22,14.8
			c9.7-0.2,16.2-5.4,19.6-15.8c3.1-9.3,3.1-18.9,3.3-28.4c0.1-4.5-0.4-9-0.6-13.5c-0.3-6.2-1.4-12.3-3.5-18.1c-1.8-5-4.6-9.3-9-12.3
			c-3.2-2.2-6.9-3-10.8-3.3c-6.3-0.4-11.9,1.1-16.3,5.9c-2.8,3.1-4.6,6.8-5.8,10.8C716.1,113.1,715.5,122.3,715.5,131.7z"/>
		<path class="st0" d="M1472.1,141.1c-23.8,0-47.4,0-71,0c0.3,8.7,1.3,17.1,5.7,24.8c4.3,7.6,11.3,11.3,19.7,12.4
			c11.2,1.4,21.2-1.3,29.8-8.9c0.7-0.6,1.3-1.4,2.2-2.2c3.8,7.3,7.5,14.4,11.4,21.7c-3.7,3.4-7.7,6.3-12.3,8.4
			c-10.7,5.2-22.1,6.3-33.8,5.5c-7.4-0.5-14.5-2.2-21-5.7c-10.8-5.8-17.4-15.1-21.5-26.3c-3.3-9-4.7-18.3-5.2-27.8
			c-0.8-13.7-0.3-27.3,3.6-40.6c3.1-10.4,8-19.8,16.2-27.3c8.4-7.6,18.3-11.3,29.6-11.8c23.5-1,39.8,11.3,45.6,34
			c2.3,9.1,2.6,18.4,2.2,27.7C1473,130.3,1472.5,135.6,1472.1,141.1z M1401.5,119.9c15.9,0,31.5,0,47.2,0c0.2-6.9,0.2-13.7-2.1-20.2
			c-1.3-3.8-3.4-7-6.7-9.4c-8.7-6.3-22.9-4.4-30,4.1C1403.7,101.8,1401.9,110.6,1401.5,119.9z"/>
		<path class="st0" d="M1280.5,200.6c-8.7,0-17.2,0-25.7,0c0-45,0-89.9,0-134.9c6.6,0,13.2,0,19.9,0c1.7,4.4,3.5,8.8,5.4,13.6
			c0.7-0.8,1.2-1.3,1.6-1.9c11-14,31.7-19.1,47.5-11.7c9.4,4.4,14.5,12.3,17.4,21.9c1.9,6.5,2.5,13.2,2.5,20c0,30.5,0,61,0,91.5
			c0,0.4,0,0.9,0,1.4c-8.7,0-17.2,0-26,0c0-0.7,0-1.3,0-2c0-28.3,0.1-56.5-0.1-84.8c0-4.3-0.6-8.7-1.9-12.8
			c-3.8-12.7-15.6-14.4-24.3-11.3c-8.1,2.8-12.9,9-15.8,16.7c-0.3,0.9-0.3,1.9-0.3,2.8c0,29.7,0,59.4,0,89
			C1280.5,199,1280.5,199.7,1280.5,200.6z"/>
		<path class="st0" d="M925,16.9c0,61.4,0,122.5,0,183.7c-8.5,0-17,0-25.7,0c0-0.7,0-1.4,0-2.1c0-59.8,0-119.6,0-179.5
			c0-1.8,0.4-2.3,2.2-2.3C909.2,17,917,16.9,925,16.9z"/>
		<path class="st0" d="M839.4,200.7c-8.6,0-17,0-25.6,0c0-44.9,0-89.8,0-134.9c0.6,0,1.2-0.1,1.8-0.1c5.4,0,10.8,0.1,16.2,0
			c1.5,0,2.1,0.5,2.5,1.9c1.3,4.7,2.8,9.4,4.2,14.1c0.2,0.6,0.4,1.3,0.9,2.6c4.7-10.6,11.8-17.8,22.8-20.4c6-1.4,12-1.1,17.9,0.4
			c0,10,0,19.9,0,29.8c-3.3-0.4-6.5-0.9-9.7-1.1c-11.3-0.7-21.3,2.4-29.3,10.8c-1.3,1.3-1.8,2.7-1.8,4.6c0.1,30.1,0,60.1,0,90.2
			C839.4,199.1,839.4,199.8,839.4,200.7z"/>
		<path class="st0" d="M992.2,65.6c-4.1,6.9-8,13.5-11.9,20.1c-8.2,13.8-16.4,27.6-24.6,41.4c-0.8,1.3-0.8,2.2-0.1,3.5
			c12.4,22.7,24.7,45.4,37,68c0.3,0.6,0.6,1.2,1,2c-10.5,0-20.8,0-31.2,0c-8-15.8-16-31.6-24-47.4c-3.8-7.5-7.5-14.9-11.4-22.4
			c-0.6-1.2-0.5-2,0.1-3.2c11.3-20,22.5-40,33.6-60.1c0.9-1.5,1.8-2.1,3.5-2.1C973.5,65.7,982.6,65.6,992.2,65.6z"/>
	</g>
</g>
</svg>
